<?xml version="1.0" encoding="UTF-8"?>
<svg xmlns="http://www.w3.org/2000/svg" viewBox="0 0 512 512" role="img" aria-labelledby="title desc">
  <title id="title">Wallshuffle</title>
  <desc id="desc">Two displays with different wallpapers and a shuffle symbol</desc>

  <path fill="#241f31" fill-rule="evenodd" d="M28 100h208v248H28V100Zm24 24v200h160V124H52Z"/>
  <path fill="#3584e4" d="M52 124h160v200H52z"/>
  <path fill="#fff" d="m52 273 52-59 33 37 24-27 51 58v42H52z"/>
  <path fill="#241f31" d="M92 348h80v40H92zM68 388h128v24H68z"/>

  <path fill="#241f31" fill-rule="evenodd" d="M276 100h208v248H276V100Zm24 24v200h160V124H300Z"/>
  <path fill="#9141ac" d="M300 124h160v200H300z"/>
  <path fill="#fff" d="m300 273 52-59 33 37 24-27 51 58v42H300z"/>
  <path fill="#241f31" d="M340 348h80v40h-80zM316 388h128v24H316z"/>

  <path fill="#fff" stroke="#241f31" stroke-width="12" d="M256 180a76 76 0 1 0 0 152 76 76 0 0 0 0-152Z"/>
  <path fill="none" stroke="#3584e4" stroke-width="16" stroke-linecap="round" d="M210 228h18c18 0 27 10 38 30l8 14c7 13 14 18 28 18"/>
  <path fill="#3584e4" d="m294 272 20 18-20 18z"/>
  <path fill="none" stroke="#3584e4" stroke-width="16" stroke-linecap="round" d="M210 290h18c18 0 27-10 38-30l8-14c7-13 14-18 28-18"/>
  <path fill="#3584e4" d="m294 210 20 18-20 18z"/>
</svg>
